<svg width="80" height="64" viewBox="0 0 80 64" fill="none" xmlns="http://www.w3.org/2000/svg">
<path d="M2.48633 18.3926C8.37435 14.5085 14.9798 12.5664 22.3027 12.5664C27.6217 12.5664 31.9635 13.7663 35.3281 16.166C38.6927 18.541 40.375 21.6211 40.375 25.4062C40.375 30.4531 37.4557 33.8301 31.6172 35.5371V35.9453C32.2109 36.0938 32.9284 36.2917 33.7695 36.5391C36.5156 35.8958 38.668 34.5846 40.2266 32.6055C41.8099 30.6263 42.6016 28.2389 42.6016 25.4434C42.6016 21.9303 41.1543 18.8132 38.2598 16.0918V15.8691L38.668 16.2031C41.9089 18.7018 43.5293 21.9056 43.5293 25.8145C43.5293 31.2077 40.7337 34.9681 35.1426 37.0957C37.5671 38.209 39.4473 39.7923 40.7832 41.8457C42.1439 43.8991 42.8242 46.2122 42.8242 48.7852C42.8242 52.4714 41.4883 55.4277 38.8164 57.6543C36.1445 59.8561 32.582 60.957 28.1289 60.957H1.55859L6.67969 56.5781V40.5098C5.22005 40.5098 3.51302 40.6582 1.55859 40.9551L1.26172 39.8789C3.46354 39.6562 5.26953 39.5449 6.67969 39.5449V37.5781H5.75195C4.36654 37.5781 2.6224 37.6771 0.519531 37.875L2.15234 34.3125L2.74609 34.3496C3.71094 34.4238 4.44076 34.4609 4.93555 34.4609C5.67773 34.4609 6.25911 34.498 6.67969 34.5723V20.6191L2.48633 18.3926ZM14.1016 17.8359V34.5723C14.3737 34.5475 14.5592 34.5352 14.6582 34.5352L15.3262 34.5723C15.4251 34.5723 15.6354 34.5723 15.957 34.5723V19.3945C18.0846 18.4049 20.1628 17.9102 22.1914 17.9102C24.5169 17.9102 26.3477 18.3307 27.6836 19.1719C29.0443 20.013 30.1947 21.4479 31.1348 23.4766L30.0957 22.8828C28.2402 20.0872 25.5931 18.6895 22.1543 18.6895C20.2246 18.6895 18.4928 19.2337 16.959 20.3223V34.5723H18.5176C23.2428 34.5723 26.7559 33.793 29.0566 32.2344C31.3822 30.651 32.5449 28.2389 32.5449 24.998C32.5449 22.153 31.5801 19.8646 29.6504 18.1328C27.7454 16.3763 25.2344 15.498 22.1172 15.498C19.3711 15.498 16.6992 16.2773 14.1016 17.8359ZM14.1016 37.6152V58.0625H15.957V39.8418C17.7135 39.7181 18.9753 39.6562 19.7422 39.6562C23.849 39.6562 26.8177 40.0397 28.6484 40.8066C30.5039 41.5736 31.9759 43.0332 33.0645 45.1855H32.6191C31.4069 43.4785 29.8854 42.3034 28.0547 41.6602C26.224 40.9922 23.5397 40.6582 20.002 40.6582L16.959 40.7324V58.0625H18.1465L23.5273 57.877C30.5039 57.3822 33.9922 53.9928 33.9922 47.709C33.9922 43.7754 32.8418 41.0911 30.541 39.6562C28.2402 38.1966 23.9355 37.4668 17.627 37.4668C17.0085 37.4668 15.8333 37.5163 14.1016 37.6152ZM41.8965 40.2129C44.5436 42.2663 45.8672 45.3835 45.8672 49.5645C45.8672 53.7702 44.3952 57.2461 41.4512 59.9922C38.5814 62.6641 34.3633 64 28.7969 64H3.5625L2.93164 62.998H26.3477C31.444 62.998 35.1178 62.4785 37.3691 61.4395C42.3665 59.1139 44.8652 55.069 44.8652 49.3047C44.8652 46.0885 43.7272 43.1693 41.4512 40.5469L41.8965 40.2129Z" fill="white"/>
<path d="M77.1992 0.617188C73.7604 4.40234 71.1628 8.17513 69.4062 11.9355C67.6745 15.696 65.6211 21.918 63.2461 30.6016L56.8262 53.9805L57.5684 56.875L62.1328 60.957H45.2109L50.0723 56.875L43.5039 33.0879L37.1211 56.3555L43.5039 64H24.541L23.7988 62.998H41.4629L35.8965 56.5781L42.9102 31.1953L41.6855 26.7793L34.0781 54.5742L34.6719 56.875L39.0137 60.957H22.0547L27.1016 56.875L16.3027 18.0215L10.7363 13.3457H28.8828L23.7988 18.0215L32.2969 48.5996L33.5957 44.1094L26.4336 18.5781L29.8105 15.5723L30.6641 16.166L27.584 18.9121L34.0781 42.2539L42.0195 13.3457H45.5078L55.1562 48.3027L56.3438 44.1094L47.8086 13.3457H48.8477L56.8262 42.2539L60.3145 29.7109C62.4915 21.8438 63.5801 16.7227 63.5801 14.3477C63.5801 11.7005 62.3431 9.6224 59.8691 8.11328C62.7637 7.19792 65.8685 5.94857 69.1836 4.36523C72.4987 2.7819 74.9727 1.35938 76.6055 0.0976562L77.1992 0.617188ZM79.4258 3.4375C76.457 6.70312 74.0078 10.3893 72.0781 14.4961C70.1732 18.6029 68.2188 24.3424 66.2148 31.7148L59.6465 55.6875L66.7715 64H47.7344L46.8809 62.998H64.5078L58.4961 56.0586L65.3242 31.1953C67.3529 23.8229 69.2949 18.1576 71.1504 14.1992C73.0059 10.2161 75.4798 6.41862 78.5723 2.80664L79.4258 3.4375Z" fill="white"/>
</svg>
