<svg width="59" height="13" viewBox="0 0 59 13" fill="none" xmlns="http://www.w3.org/2000/svg">
<path d="M29.5 0.959961C29.813 0.959961 30.1131 1.00843 30.3344 1.09469C30.5557 1.18096 30.68 1.29796 30.68 1.41996V11.5399C30.68 11.6619 30.5557 11.7789 30.3344 11.8652C30.1131 11.9515 29.813 11.9999 29.5 11.9999C29.187 11.9999 28.8869 11.9515 28.6656 11.8652C28.4443 11.7789 28.32 11.6619 28.32 11.5399V1.41996C28.32 1.29796 28.4443 1.18096 28.6656 1.09469C28.8869 1.00843 29.187 0.959961 29.5 0.959961Z" fill="white"/>
<path d="M24.78 2.79996C25.093 2.79996 25.3931 2.84842 25.6144 2.93469C25.8357 3.02095 25.96 3.13796 25.96 3.25996V9.69994C25.96 9.82194 25.8357 9.93895 25.6144 10.0252C25.3931 10.1115 25.093 10.1599 24.78 10.1599C24.467 10.1599 24.1669 10.1115 23.9456 10.0252C23.7243 9.93895 23.6 9.82194 23.6 9.69994V3.25996C23.6 3.13796 23.7243 3.02095 23.9456 2.93469C24.1669 2.84842 24.467 2.79996 24.78 2.79996Z" fill="white"/>
<path d="M20.06 4.17995C20.373 4.17995 20.6731 4.22842 20.8944 4.31469C21.1157 4.40095 21.24 4.51795 21.24 4.63995V8.31995C21.24 8.44195 21.1157 8.55895 20.8944 8.64522C20.6731 8.73148 20.373 8.77994 20.06 8.77994C19.747 8.77994 19.4469 8.73148 19.2256 8.64522C19.0043 8.55895 18.88 8.44195 18.88 8.31995V4.63995C18.88 4.51795 19.0043 4.40095 19.2256 4.31469C19.4469 4.22842 19.747 4.17995 20.06 4.17995Z" fill="white"/>
<path d="M34.22 4.17995C34.533 4.17995 34.8331 4.22842 35.0544 4.31469C35.2757 4.40095 35.4 4.51795 35.4 4.63995V8.31995C35.4 8.44195 35.2757 8.55895 35.0544 8.64522C34.8331 8.73148 34.533 8.77994 34.22 8.77994C33.907 8.77994 33.6069 8.73148 33.3856 8.64522C33.1643 8.55895 33.04 8.44195 33.04 8.31995V4.63995C33.04 4.51795 33.1643 4.40095 33.3856 4.31469C33.6069 4.22842 33.907 4.17995 34.22 4.17995Z" fill="white"/>
<path d="M15.34 5.09995C15.653 5.09995 15.9531 5.14842 16.1744 5.23468C16.3957 5.32095 16.52 5.43795 16.52 5.55995V7.39995C16.52 7.52195 16.3957 7.63895 16.1744 7.72522C15.9531 7.81148 15.653 7.85995 15.34 7.85995C15.027 7.85995 14.7269 7.81148 14.5056 7.72522C14.478 7.71443 14.4518 7.70317 14.4272 7.69148C14.2552 7.60962 14.16 7.5067 14.16 7.39995V5.55995C14.16 5.43795 14.2843 5.32095 14.5056 5.23468C14.7269 5.14842 15.027 5.09995 15.34 5.09995Z" fill="white"/>
<path d="M38.94 5.09995C39.253 5.09995 39.5531 5.14842 39.7744 5.23468C39.9957 5.32095 40.12 5.43795 40.12 5.55995V7.39995C40.12 7.52195 39.9957 7.63895 39.7744 7.72522C39.5531 7.81148 39.253 7.85995 38.94 7.85995C38.627 7.85995 38.3269 7.81148 38.1056 7.72522C37.8843 7.63895 37.76 7.52195 37.76 7.39995V5.55995C37.76 5.43795 37.8843 5.32095 38.1056 5.23468C38.3269 5.14842 38.627 5.09995 38.94 5.09995Z" fill="white"/>
<path d="M48.38 2.79996C48.693 2.79996 48.9931 2.84842 49.2144 2.93469C49.4357 3.02095 49.56 3.13796 49.56 3.25996V9.69994C49.56 9.82194 49.4357 9.93895 49.2144 10.0252C48.9931 10.1115 48.693 10.1599 48.38 10.1599C48.067 10.1599 47.7669 10.1115 47.5456 10.0252C47.3243 9.93895 47.2 9.82194 47.2 9.69994V3.25996C47.2 3.13796 47.3243 3.02095 47.5456 2.93469C47.7669 2.84842 48.067 2.79996 48.38 2.79996Z" fill="white"/>
<path d="M43.66 4.17995C43.973 4.17995 44.2731 4.22842 44.4944 4.31469C44.7157 4.40095 44.84 4.51795 44.84 4.63995V8.31995C44.84 8.44195 44.7157 8.55895 44.4944 8.64522C44.2731 8.73148 43.973 8.77994 43.66 8.77994C43.347 8.77994 43.0469 8.73148 42.8256 8.64522C42.6043 8.55895 42.48 8.44195 42.48 8.31995V4.63995C42.48 4.51795 42.6043 4.40095 42.8256 4.31469C43.0469 4.22842 43.347 4.17995 43.66 4.17995Z" fill="white"/>
<path d="M53.1 4.17995C53.413 4.17995 53.7131 4.22842 53.9344 4.31469C54.1557 4.40095 54.28 4.51795 54.28 4.63995V8.31995C54.28 8.44195 54.1557 8.55895 53.9344 8.64522C53.7131 8.73148 53.413 8.77994 53.1 8.77994C52.787 8.77994 52.4869 8.73148 52.2656 8.64522C52.0443 8.55895 51.92 8.44195 51.92 8.31995V4.63995C51.92 4.51795 52.0443 4.40095 52.2656 4.31469C52.4869 4.22842 52.787 4.17995 53.1 4.17995Z" fill="white"/>
<path d="M57.82 5.09995C58.1329 5.09995 58.4331 5.14842 58.6544 5.23468C58.8757 5.32095 59 5.43795 59 5.55995V7.39995C59 7.52195 58.8757 7.63895 58.6544 7.72522C58.4331 7.81148 58.1329 7.85995 57.82 7.85995C57.507 7.85995 57.2069 7.81148 56.9856 7.72522C56.7643 7.63895 56.64 7.52195 56.64 7.39995V5.55995C56.64 5.43795 56.7643 5.32095 56.9856 5.23468C57.2069 5.14842 57.507 5.09995 57.82 5.09995Z" fill="white"/>
<path d="M11.4544 2.93469C11.2331 2.84842 10.933 2.79996 10.62 2.79996C10.307 2.79996 10.0069 2.84842 9.78561 2.93469C9.56432 3.02095 9.44 3.13796 9.44 3.25996V9.69994C9.44 9.82194 9.56432 9.93895 9.78561 10.0252C10.0069 10.1115 10.307 10.1599 10.62 10.1599C10.933 10.1599 11.2331 10.1115 11.4544 10.0252C11.6757 9.93895 11.8 9.82194 11.8 9.69994V3.25996C11.8 3.13796 11.6757 3.02095 11.4544 2.93469Z" fill="white"/>
<path d="M6.73439 4.31469C6.51309 4.22842 6.21295 4.17995 5.9 4.17995C5.58704 4.17995 5.28691 4.22842 5.06561 4.31469C4.84432 4.40095 4.72 4.51795 4.72 4.63995V8.31995C4.72 8.44195 4.84432 8.55895 5.06561 8.64522C5.28691 8.73148 5.58704 8.77994 5.9 8.77994C6.21295 8.77994 6.51309 8.73148 6.73439 8.64522C6.95568 8.55895 7.08 8.44195 7.08 8.31995V4.63995C7.08 4.51795 6.95568 4.40095 6.73439 4.31469Z" fill="white"/>
<path d="M2.01439 5.23468C1.79309 5.14842 1.49296 5.09995 1.18 5.09995C0.867045 5.09995 0.566907 5.14842 0.345614 5.23468C0.124321 5.32095 0 5.43795 0 5.55995V7.39995C0 7.52195 0.124321 7.63895 0.345614 7.72522C0.566907 7.81148 0.867045 7.85995 1.18 7.85995C1.49296 7.85995 1.79309 7.81148 2.01439 7.72522C2.23568 7.63895 2.36 7.52195 2.36 7.39995V5.55995C2.36 5.43795 2.23568 5.32095 2.01439 5.23468Z" fill="white"/>
<path fill-rule="evenodd" clip-rule="evenodd" d="M29.5 1C29.813 1 30.1131 1.04846 30.3344 1.13473C30.5557 1.221 30.68 1.338 30.68 1.46V11.58C30.68 11.702 30.5557 11.819 30.3344 11.9052C30.1131 11.9915 29.813 12.04 29.5 12.04C29.187 12.04 28.8869 11.9915 28.6656 11.9052C28.4443 11.819 28.32 11.702 28.32 11.58V1.46C28.32 1.338 28.4443 1.221 28.6656 1.13473C28.8869 1.04846 29.187 1 29.5 1ZM24.78 2.84C25.093 2.84 25.3931 2.88846 25.6144 2.97473C25.8357 3.06099 25.96 3.178 25.96 3.3V9.73998C25.96 9.86198 25.8357 9.97898 25.6144 10.0653C25.3931 10.1515 25.093 10.2 24.78 10.2C24.467 10.2 24.1669 10.1515 23.9456 10.0653C23.7243 9.97898 23.6 9.86198 23.6 9.73998V3.3C23.6 3.178 23.7243 3.06099 23.9456 2.97473C24.1669 2.88846 24.467 2.84 24.78 2.84ZM20.8944 4.35472C20.6731 4.26846 20.373 4.21999 20.06 4.21999C19.747 4.21999 19.4469 4.26846 19.2256 4.35472C19.0043 4.44099 18.88 4.55799 18.88 4.67999V8.35998C18.88 8.48198 19.0043 8.59899 19.2256 8.68525C19.4469 8.77152 19.747 8.81998 20.06 8.81998C20.373 8.81998 20.6731 8.77152 20.8944 8.68525C21.1157 8.59899 21.24 8.48198 21.24 8.35998V4.67999C21.24 4.55799 21.1157 4.44099 20.8944 4.35472ZM16.1744 5.27472C15.9531 5.18846 15.653 5.13999 15.34 5.13999C15.027 5.13999 14.7269 5.18846 14.5056 5.27472C14.2843 5.36099 14.16 5.47799 14.16 5.59999V7.43999C14.16 7.54674 14.2552 7.64966 14.4272 7.73152C14.4518 7.74321 14.478 7.75447 14.5056 7.76526C14.7269 7.85152 15.027 7.89999 15.34 7.89999C15.653 7.89999 15.9531 7.85152 16.1744 7.76526C16.3957 7.67899 16.52 7.56199 16.52 7.43999V5.59999C16.52 5.47799 16.3957 5.36099 16.1744 5.27472ZM10.62 2.84C10.933 2.84 11.2331 2.88846 11.4544 2.97473C11.6757 3.06099 11.8 3.178 11.8 3.3V9.73998C11.8 9.86198 11.6757 9.97898 11.4544 10.0653C11.2331 10.1515 10.933 10.2 10.62 10.2C10.307 10.2 10.0069 10.1515 9.78561 10.0653C9.56432 9.97898 9.44 9.86198 9.44 9.73998V3.3C9.44 3.178 9.56432 3.06099 9.78561 2.97473C10.0069 2.88846 10.307 2.84 10.62 2.84ZM6.73439 4.35472C6.51309 4.26846 6.21295 4.21999 5.9 4.21999C5.58704 4.21999 5.28691 4.26846 5.06561 4.35472C4.84432 4.44099 4.72 4.55799 4.72 4.67999V8.35998C4.72 8.48198 4.84432 8.59899 5.06561 8.68525C5.28691 8.77152 5.58704 8.81998 5.9 8.81998C6.21295 8.81998 6.51309 8.77152 6.73439 8.68525C6.95568 8.59899 7.08 8.48198 7.08 8.35998V4.67999C7.08 4.55799 6.95568 4.44099 6.73439 4.35472ZM1.18 5.13999C1.49296 5.13999 1.79309 5.18846 2.01439 5.27472C2.23568 5.36099 2.36 5.47799 2.36 5.59999V7.43999C2.36 7.56199 2.23568 7.67899 2.01439 7.76526C1.79309 7.85152 1.49296 7.89999 1.18 7.89999C0.867045 7.89999 0.566907 7.85152 0.345614 7.76526C0.124321 7.67899 0 7.56199 0 7.43999V5.59999C0 5.47799 0.124321 5.36099 0.345614 5.27472C0.566907 5.18846 0.867045 5.13999 1.18 5.13999Z" fill="#AB8B52"/>
</svg>
