<svg width="8" height="10" viewBox="0 0 8 10" fill="none" xmlns="http://www.w3.org/2000/svg">
<path d="M6.91205 4.73333L1.28796 1.29628C1.24059 1.26733 1.18636 1.25152 1.13085 1.25048C1.07534 1.24944 1.02056 1.26321 0.97214 1.29036C0.923719 1.31752 0.883406 1.35709 0.855348 1.40499C0.82729 1.4529 0.8125 1.50741 0.8125 1.56293V8.43704C0.8125 8.49256 0.82729 8.54707 0.855348 8.59497C0.883406 8.64288 0.923719 8.68244 0.97214 8.7096C1.02056 8.73676 1.07534 8.75052 1.13085 8.74948C1.18636 8.74844 1.24059 8.73264 1.28796 8.70369L6.91205 5.26663C6.95772 5.23872 6.99546 5.19953 7.02165 5.15284C7.04784 5.10615 7.06159 5.05352 7.06159 4.99998C7.06159 4.94645 7.04784 4.89381 7.02165 4.84712C6.99546 4.80043 6.95772 4.76125 6.91205 4.73333Z" stroke="white" stroke-width="0.7" stroke-linecap="round" stroke-linejoin="round"/>
</svg>
